<svg xmlns="http://www.w3.org/2000/svg" xmlns:xlink="http://www.w3.org/1999/xlink" width="800" zoomAndPan="magnify" viewBox="0 0 600 599.999999" height="800" preserveAspectRatio="xMidYMid meet" version="1.0"><defs><g/><clipPath id="ded83cc831"><rect x="0" width="312" y="0" height="174"/></clipPath><clipPath id="45655257fd"><rect x="0" width="257" y="0" height="52"/></clipPath></defs><path fill="#ffffff" d="M 169.417969 260.046875 C 175.316406 259.933594 179.132812 258.890625 184.453125 257.964844 C 187.921875 256.117188 191.277344 255.421875 194.746094 253.222656 C 196.25 252.300781 198.21875 250.796875 199.257812 249.753906 C 200.761719 248.136719 201.222656 247.09375 203.191406 245.359375 C 204.460938 244.78125 203.539062 244.664062 205.039062 245.9375 C 207.933594 248.480469 208.859375 254.148438 211.402344 259.125 C 212.328125 260.859375 213.484375 262.59375 214.179688 263.980469 C 215.796875 265.832031 215.566406 267.105469 217.648438 267.683594 C 218.457031 269.1875 219.265625 270.226562 220.539062 271.5 C 222.160156 273.234375 222.160156 273.929688 223.664062 275.085938 C 223.777344 276.589844 224.355469 277.050781 224.703125 278.785156 C 225.167969 280.867188 225.167969 282.488281 225.050781 284.570312 L 224.125 298.5625 C 223.894531 302.84375 223.316406 303.539062 224.472656 304.578125 L 235.460938 304.578125 C 237.3125 296.714844 239.625 283.757812 242.285156 277.28125 L 244.480469 273.582031 C 245.984375 269.070312 248.761719 266.410156 250.148438 260.742188 C 251.539062 255.074219 255.355469 250.21875 255.46875 244.433594 C 256.394531 177.464844 287.160156 204.761719 286.46875 167.402344 C 279.875 157.339844 278.488281 157.800781 282.765625 149.128906 C 291.671875 131.316406 277.792969 80.425781 230.140625 101.9375 C 226.785156 103.441406 223.777344 105.058594 220.425781 106.796875 C 210.824219 111.539062 214.640625 114.3125 212.675781 121.601562 L 60 121.601562 L 116.675781 216.558594 C 116.675781 220.492188 116.675781 224.425781 117.136719 227.085938 C 117.367188 231.828125 118.523438 247.441406 121.183594 249.984375 C 121.183594 251.835938 121.417969 252.066406 122.34375 253.800781 L 124.308594 257.042969 C 126.507812 262.246094 129.746094 264.445312 134.949219 264.097656 C 136.453125 263.980469 138.765625 263.75 139.808594 263.054688 C 141.773438 263.285156 143.855469 263.171875 145.9375 263.054688 L 166.292969 299.140625 L 94.351562 307.355469 C 117.484375 307.355469 156 307.355469 179.132812 307.355469 L 183.644531 307.355469 L 157.851562 261.550781 L 166.0625 260.164062 Z M 153.800781 219.683594 C 152.414062 221.765625 151.488281 224.308594 149.058594 225.117188 L 148.714844 223.382812 C 148.25 220.375 147.210938 215.285156 145.359375 213.4375 C 144.78125 211.703125 143.972656 209.042969 142.351562 207.882812 C 141.773438 206.148438 141.773438 206.148438 140.617188 204.53125 C 139.34375 202.5625 138.535156 201.40625 137.492188 199.210938 C 136.800781 197.589844 136.105469 195.046875 135.410156 193.773438 C 134.832031 190.417969 134.253906 187.527344 133.910156 183.828125 C 133.792969 182.09375 133.5625 180.472656 133.445312 178.851562 C 133.332031 176.539062 133.792969 175.730469 134.488281 174.109375 C 135.757812 173.300781 134.949219 172.953125 136.800781 172.609375 C 139.921875 174.226562 144.550781 173.070312 147.324219 171.335938 C 148.945312 170.292969 149.636719 169.253906 151.027344 168.558594 C 153.109375 167.519531 155.074219 168.445312 156.695312 167.171875 C 161.78125 167.402344 164.210938 162.542969 161.320312 159.882812 C 159.007812 152.714844 160.972656 154.101562 157.621094 150.167969 C 156.230469 148.550781 156.347656 148.664062 155.191406 148.203125 C 153.339844 145.3125 148.828125 142.765625 143.972656 143.460938 C 134.949219 148.550781 119.566406 156.414062 115.519531 166.363281 C 114.246094 169.484375 114.363281 178.621094 116.097656 181.167969 L 117.136719 195.855469 L 79.316406 132.242188 L 210.59375 132.242188 C 210.59375 139.527344 213.367188 143.460938 212.789062 148.433594 C 212.097656 153.640625 210.015625 156.53125 211.054688 162.3125 C 213.023438 163.585938 215.335938 163.355469 217.765625 164.742188 C 218.226562 165.4375 219.035156 166.707031 219.382812 167.285156 C 217.765625 168.789062 219.960938 169.253906 221.234375 169.484375 C 219.152344 172.839844 221.695312 174.921875 222.851562 175.152344 C 225.511719 185.332031 224.472656 186.140625 235.691406 183.363281 C 238.234375 182.785156 238.699219 182.09375 240.78125 182.902344 L 242.976562 184.519531 C 243.09375 184.636719 243.210938 184.867188 243.324219 184.984375 L 244.480469 186.488281 C 243.671875 188.335938 244.597656 188.105469 243.671875 188.335938 C 242.632812 188.683594 241.820312 189.03125 241.128906 189.261719 C 237.078125 189.261719 228.289062 192.386719 224.589844 193.425781 L 214.757812 190.996094 C 205.734375 188.683594 191.738281 196.316406 185.261719 202.101562 C 181.097656 205.800781 178.667969 205.339844 176.355469 205.222656 C 168.605469 204.644531 157.386719 214.128906 153.800781 219.683594 Z M 153.800781 219.683594 " fill-opacity="1" fill-rule="nonzero"/><path fill="#ffffff" d="M 436.714844 294.398438 L 463.546875 247.558594 C 460.425781 247.902344 454.0625 247.324219 451.402344 246.980469 C 451.285156 246.980469 451.171875 246.980469 451.171875 246.980469 L 418.785156 303.539062 L 423.296875 303.539062 C 446.890625 303.539062 477.542969 303.882812 501.136719 303.882812 Z M 436.714844 294.398438 " fill-opacity="1" fill-rule="nonzero"/><path fill="#ffffff" d="M 376.335938 129.351562 C 377.148438 130.390625 377.839844 131.429688 378.417969 132.355469 L 520.570312 132.355469 L 467.015625 219.21875 C 468.75 224.539062 470.488281 229.976562 470.949219 234.140625 L 540 121.136719 L 374.023438 121.136719 C 375.644531 123.566406 376.453125 126.34375 376.335938 129.351562 Z M 376.335938 129.351562 " fill-opacity="1" fill-rule="nonzero"/><path fill="#3eebd4" d="M 284.964844 194.816406 C 284.5 194.929688 284.152344 195.046875 283.691406 195.160156 C 284.152344 195.046875 284.5 194.929688 284.964844 194.816406 Z M 284.964844 194.816406 " fill-opacity="1" fill-rule="nonzero"/><path fill="#3eebd4" d="M 463.546875 247.558594 C 463.777344 247.558594 464.007812 247.558594 464.125 247.441406 C 468.519531 246.632812 469.675781 243.625 470.488281 239.113281 C 471.066406 237.957031 471.179688 236.105469 470.949219 234.023438 C 470.488281 229.859375 468.867188 224.308594 467.015625 219.105469 C 465.050781 213.203125 462.96875 207.539062 462.390625 204.644531 L 458.226562 192.039062 C 457.53125 190.882812 450.707031 173.417969 450.246094 171.566406 C 449.550781 170.871094 446.660156 163.238281 444.808594 161.042969 C 442.496094 158.265625 436.714844 155.722656 432.203125 156.761719 C 430.582031 155.835938 428.039062 155.835938 426.070312 155.835938 C 423.992188 155.722656 421.910156 155.722656 419.828125 155.605469 C 415.777344 155.488281 410.109375 154.21875 409.996094 158.613281 C 409.300781 159.304688 409.878906 158.496094 409.183594 159.652344 C 409.070312 159.882812 408.605469 160.808594 408.605469 160.808594 C 408.261719 161.734375 408.027344 162.542969 407.796875 163.238281 C 407.449219 164.394531 406.988281 165.550781 406.640625 166.59375 C 405.832031 169.253906 405.484375 171.796875 407.449219 173.996094 C 409.878906 176.65625 408.722656 174.804688 409.765625 178.96875 C 418.667969 181.398438 418.902344 182.09375 421.328125 178.390625 L 431.507812 178.042969 C 431.855469 177.695312 432.664062 177.117188 433.128906 176.539062 C 434.632812 175.152344 433.359375 175.613281 435.902344 174.804688 C 438.214844 177.582031 439.835938 182.902344 440.878906 186.949219 C 441.917969 191.460938 442.496094 195.507812 442.378906 200.367188 C 442.265625 203.953125 440.992188 211.355469 442.84375 214.015625 L 442.957031 215.519531 C 442.378906 219.796875 443.652344 215.980469 433.359375 212.859375 C 421.097656 209.273438 415.085938 213.898438 408.492188 207.191406 C 406.988281 205.6875 400.859375 201.40625 400.164062 199.902344 C 398.082031 199.558594 395.539062 197.476562 392.992188 196.433594 C 388.597656 195.394531 386.054688 195.160156 381.195312 195.277344 C 376.570312 195.394531 371.132812 195.625 366.390625 195.046875 C 360.261719 194.351562 355.519531 191.808594 359.796875 182.902344 L 378.304688 185.445312 C 382.46875 186.488281 384.894531 182.902344 384.78125 179.664062 L 383.738281 175.152344 C 386.167969 174.6875 387.671875 173.648438 385.707031 170.757812 C 388.25 169.601562 388.019531 167.519531 386.167969 164.742188 L 389.058594 161.386719 C 391.140625 159.074219 392.066406 158.84375 389.292969 155.953125 L 382.929688 149.820312 C 383.046875 141.496094 382.351562 137.910156 378.535156 132.125 C 377.957031 131.199219 377.261719 130.273438 376.453125 129.117188 C 376.570312 126.109375 375.757812 123.335938 374.253906 120.90625 C 366.851562 109.339844 342.332031 105.058594 322.554688 115.816406 C 267.613281 104.25 301.503906 188.335938 285.078125 194.582031 C 307.171875 188.800781 319.894531 173.878906 310.757812 146.003906 C 315.382812 155.140625 320.703125 163.238281 327.179688 169.832031 C 326.140625 195.046875 315.265625 191.460938 308.210938 193.773438 C 296.761719 195.625 288.78125 195.855469 279.644531 203.375 C 276.40625 205.6875 270.738281 213.4375 269.347656 219.566406 L 267.960938 223.960938 L 267.265625 232.289062 C 267.152344 241.773438 267.152344 246.632812 264.722656 255.421875 C 264.261719 256.695312 261.945312 261.550781 261.832031 262.363281 C 255.238281 270.226562 253.386719 283.875 250.496094 293.589844 C 250.035156 296.019531 248.878906 300.300781 248.183594 304 L 277.910156 304 C 278.601562 299.71875 278.949219 295.558594 279.179688 292.085938 C 279.410156 288.269531 279.757812 285.957031 281.148438 282.371094 C 282.304688 279.363281 284.039062 277.28125 284.964844 274.160156 C 286.699219 272.65625 289.707031 263.75 291.324219 261.320312 C 292.367188 265.601562 297.800781 285.609375 298.148438 286.074219 C 297.6875 288.269531 297.917969 298.5625 297.800781 304 L 375.296875 304 C 376.335938 302.148438 376.105469 299.953125 376.683594 296.480469 C 377.378906 291.507812 377.839844 288.5 379.574219 284.222656 C 382.003906 281.5625 386.746094 274.042969 387.554688 269.648438 C 390.449219 263.285156 387.441406 254.84375 386.054688 247.902344 C 385.9375 245.476562 385.707031 241.425781 385.707031 240.5 C 386.285156 237.839844 386.398438 237.496094 388.136719 236.105469 L 391.257812 234.832031 C 404.210938 233.910156 409.183594 239.460938 418.902344 242.003906 C 423.527344 245.589844 442.378906 245.9375 449.550781 246.398438 L 451.054688 246.632812 C 451.054688 246.632812 451.054688 246.632812 451.285156 246.632812 C 451.402344 246.632812 451.402344 246.632812 451.519531 246.632812 C 453.945312 247.441406 460.425781 247.902344 463.546875 247.558594 Z M 463.546875 247.558594 " fill-opacity="1" fill-rule="nonzero"/><g transform="matrix(1, 0, 0, 1, 140, 300)"><g clip-path="url(#ded83cc831)"><g fill="#3eebd4" fill-opacity="1"><g transform="translate(20.385818, 145.58802)"><g><path d="M 83.3125 16.78125 L 31.890625 16.78125 L 31.890625 -86.605469 L 48.671875 -86.605469 L 48.671875 -69.824219 L -15.914062 -69.824219 L -15.914062 -138.027344 L 147.902344 -138.027344 L 147.902344 -69.824219 L 83.3125 -69.824219 L 83.3125 -86.605469 L 100.09375 -86.605469 L 100.09375 16.78125 Z M 83.3125 -16.78125 L 83.3125 0 L 66.535156 0 L 66.535156 -103.386719 L 131.121094 -103.386719 L 131.121094 -86.605469 L 114.339844 -86.605469 L 114.339844 -121.246094 L 131.121094 -121.246094 L 131.121094 -104.464844 L 0.867188 -104.464844 L 0.867188 -121.246094 L 17.648438 -121.246094 L 17.648438 -86.605469 L 0.867188 -86.605469 L 0.867188 -103.386719 L 65.453125 -103.386719 L 65.453125 0 L 48.671875 0 L 48.671875 -16.78125 Z M 83.3125 -16.78125 "/></g></g></g><g fill="#3eebd4" fill-opacity="1"><g transform="translate(152.353377, 145.58802)"><g><path d="M 150.433594 -5.457031 L 128.199219 16.78125 L 24.226562 16.78125 L -2.925781 -10.371094 L -2.925781 -86.605469 L 13.855469 -86.605469 L 13.855469 -69.824219 L -15.914062 -69.824219 L -15.914062 -138.027344 L 65.28125 -138.027344 L 65.28125 -34.640625 L 48.5 -34.640625 L 48.5 -51.421875 L 103.925781 -51.421875 L 103.925781 -34.640625 L 87.144531 -34.640625 L 87.144531 -138.027344 L 155.347656 -138.027344 L 155.347656 -10.371094 Z M 126.703125 -29.1875 L 138.566406 -17.320312 L 121.789062 -17.320312 L 121.789062 -121.246094 L 138.566406 -121.246094 L 138.566406 -104.464844 L 103.925781 -104.464844 L 103.925781 -121.246094 L 120.707031 -121.246094 L 120.707031 -17.859375 L 31.71875 -17.859375 L 31.71875 -121.246094 L 48.5 -121.246094 L 48.5 -104.464844 L 0.867188 -104.464844 L 0.867188 -121.246094 L 17.648438 -121.246094 L 17.648438 -86.605469 L 0.867188 -86.605469 L 0.867188 -103.386719 L 30.636719 -103.386719 L 30.636719 -17.320312 L 13.855469 -17.320312 L 25.722656 -29.1875 L 43.042969 -11.867188 L 31.179688 0 L 31.179688 -16.78125 L 121.246094 -16.78125 L 121.246094 0 L 109.382812 -11.867188 Z M 126.703125 -29.1875 "/></g></g></g><g fill="#122620" fill-opacity="1"><g transform="translate(20.385818, 145.58802)"><g><path d="M 83.3125 0 L 48.671875 0 L 48.671875 -86.609375 L 0.859375 -86.609375 L 0.859375 -121.25 L 131.109375 -121.25 L 131.109375 -86.609375 L 83.3125 -86.609375 Z M 83.3125 0 "/></g></g></g><g fill="#122620" fill-opacity="1"><g transform="translate(152.353377, 145.58802)"><g><path d="M 138.5625 -17.328125 L 121.25 0 L 31.171875 0 L 13.859375 -17.328125 L 13.859375 -86.609375 L 0.859375 -86.609375 L 0.859375 -121.25 L 48.5 -121.25 L 48.5 -34.640625 L 103.921875 -34.640625 L 103.921875 -121.25 L 138.5625 -121.25 Z M 138.5625 -17.328125 "/></g></g></g></g></g><g transform="matrix(1, 0, 0, 1, 190, 463)"><g clip-path="url(#45655257fd)"><g fill="#ffffff" fill-opacity="1"><g transform="translate(0.486223, 39.969394)"><g><path d="M 2.5 0 L 2.5 -35.703125 L 31.015625 -35.703125 L 31.015625 -29.53125 L 9.640625 -29.53125 L 9.640625 -20.65625 L 29.890625 -20.65625 L 29.890625 -14.546875 L 9.640625 -14.546875 L 9.640625 0 Z M 2.5 0 "/></g></g></g><g fill="#ffffff" fill-opacity="1"><g transform="translate(36.295645, 39.969394)"><g><path d="M 2.546875 0 L 2.546875 -35.703125 L 9.640625 -35.703125 L 9.640625 0 Z M 2.546875 0 "/></g></g></g><g fill="#ffffff" fill-opacity="1"><g transform="translate(52.97684, 39.969394)"><g><path d="M 13.421875 0 L 13.421875 -29.640625 L -0.453125 -29.640625 L -0.453125 -35.703125 L 34.390625 -35.703125 L 34.390625 -29.640625 L 20.5625 -29.640625 L 20.5625 0 Z M 13.421875 0 "/></g></g></g><g fill="#ffffff" fill-opacity="1"><g transform="translate(91.438713, 39.969394)"><g><path d="M 2.546875 0 L 2.546875 -35.703125 L 8.875 -35.703125 L 27.390625 -14.234375 L 31.328125 -8.671875 L 31.484375 -8.71875 L 30.859375 -15.453125 L 30.859375 -35.703125 L 37.703125 -35.703125 L 37.703125 0 L 30.765625 0 L 12.1875 -21.984375 L 9.078125 -26.890625 L 8.828125 -26.828125 L 9.484375 -21.171875 L 9.484375 0 Z M 2.546875 0 "/></g></g></g><g fill="#ffffff" fill-opacity="1"><g transform="translate(136.174627, 39.969394)"><g><path d="M 2.5 0 L 2.5 -35.703125 L 31.0625 -35.703125 L 31.0625 -29.640625 L 9.328125 -29.640625 L 9.328125 -20.765625 L 30.203125 -20.765625 L 30.203125 -14.890625 L 9.328125 -14.890625 L 9.328125 -6.078125 L 31.0625 -6.078125 L 31.0625 0 Z M 2.5 0 "/></g></g></g><g fill="#ffffff" fill-opacity="1"><g transform="translate(172.800181, 39.969394)"><g><path d="M 18.671875 0.875 C 16.734375 0.875 14.742188 0.703125 12.703125 0.359375 C 10.660156 0.015625 8.738281 -0.570312 6.9375 -1.40625 C 5.132812 -2.238281 3.628906 -3.425781 2.421875 -4.96875 C 1.210938 -6.519531 0.488281 -8.484375 0.25 -10.859375 L 7.296875 -11.734375 C 7.429688 -10.367188 7.875 -9.253906 8.625 -8.390625 C 9.375 -7.523438 10.304688 -6.851562 11.421875 -6.375 C 12.546875 -5.894531 13.738281 -5.5625 15 -5.375 C 16.257812 -5.1875 17.445312 -5.09375 18.5625 -5.09375 C 19.25 -5.09375 20.148438 -5.148438 21.265625 -5.265625 C 22.390625 -5.390625 23.519531 -5.625 24.65625 -5.96875 C 25.800781 -6.3125 26.78125 -6.804688 27.59375 -7.453125 C 28.414062 -8.097656 28.878906 -8.929688 28.984375 -9.953125 C 29.078125 -11.140625 28.828125 -12.070312 28.234375 -12.75 C 27.640625 -13.4375 26.832031 -13.945312 25.8125 -14.28125 C 24.789062 -14.625 23.660156 -14.863281 22.421875 -15 C 21.179688 -15.132812 19.945312 -15.21875 18.71875 -15.25 L 16.328125 -15.359375 C 14.660156 -15.421875 12.914062 -15.570312 11.09375 -15.8125 C 9.269531 -16.050781 7.578125 -16.492188 6.015625 -17.140625 C 4.453125 -17.785156 3.175781 -18.742188 2.1875 -20.015625 C 1.207031 -21.296875 0.71875 -23.007812 0.71875 -25.15625 C 0.71875 -27.019531 1.085938 -28.613281 1.828125 -29.9375 C 2.578125 -31.269531 3.582031 -32.359375 4.84375 -33.203125 C 6.101562 -34.054688 7.503906 -34.722656 9.046875 -35.203125 C 10.597656 -35.679688 12.179688 -36.007812 13.796875 -36.1875 C 15.410156 -36.375 16.953125 -36.46875 18.421875 -36.46875 C 20.253906 -36.46875 22.128906 -36.332031 24.046875 -36.0625 C 25.972656 -35.789062 27.75 -35.289062 29.375 -34.5625 C 31.007812 -33.832031 32.351562 -32.757812 33.40625 -31.34375 C 34.46875 -29.9375 35.066406 -28.109375 35.203125 -25.859375 L 28.15625 -25.15625 C 28.050781 -26.3125 27.648438 -27.257812 26.953125 -28 C 26.265625 -28.75 25.410156 -29.328125 24.390625 -29.734375 C 23.367188 -30.148438 22.3125 -30.429688 21.21875 -30.578125 C 20.132812 -30.734375 19.148438 -30.8125 18.265625 -30.8125 C 17.648438 -30.8125 16.78125 -30.75 15.65625 -30.625 C 14.539062 -30.507812 13.394531 -30.273438 12.21875 -29.921875 C 11.039062 -29.566406 10.046875 -29.019531 9.234375 -28.28125 C 8.421875 -27.550781 8.015625 -26.554688 8.015625 -25.296875 C 8.015625 -24.109375 8.410156 -23.222656 9.203125 -22.640625 C 10.003906 -22.066406 11.039062 -21.675781 12.3125 -21.46875 C 13.59375 -21.269531 14.960938 -21.132812 16.421875 -21.0625 C 18.867188 -21.03125 21.273438 -20.882812 23.640625 -20.625 C 26.003906 -20.375 28.140625 -19.898438 30.046875 -19.203125 C 31.953125 -18.503906 33.460938 -17.472656 34.578125 -16.109375 C 35.703125 -14.753906 36.265625 -12.957031 36.265625 -10.71875 C 36.265625 -8.632812 35.710938 -6.828125 34.609375 -5.296875 C 33.503906 -3.773438 32.054688 -2.535156 30.265625 -1.578125 C 28.484375 -0.628906 26.570312 0.03125 24.53125 0.40625 C 22.90625 0.71875 20.953125 0.875 18.671875 0.875 Z M 18.671875 0.875 "/></g></g></g><g fill="#ffffff" fill-opacity="1"><g transform="translate(214.067512, 39.969394)"><g><path d="M 18.671875 0.875 C 16.734375 0.875 14.742188 0.703125 12.703125 0.359375 C 10.660156 0.015625 8.738281 -0.570312 6.9375 -1.40625 C 5.132812 -2.238281 3.628906 -3.425781 2.421875 -4.96875 C 1.210938 -6.519531 0.488281 -8.484375 0.25 -10.859375 L 7.296875 -11.734375 C 7.429688 -10.367188 7.875 -9.253906 8.625 -8.390625 C 9.375 -7.523438 10.304688 -6.851562 11.421875 -6.375 C 12.546875 -5.894531 13.738281 -5.5625 15 -5.375 C 16.257812 -5.1875 17.445312 -5.09375 18.5625 -5.09375 C 19.25 -5.09375 20.148438 -5.148438 21.265625 -5.265625 C 22.390625 -5.390625 23.519531 -5.625 24.65625 -5.96875 C 25.800781 -6.3125 26.78125 -6.804688 27.59375 -7.453125 C 28.414062 -8.097656 28.878906 -8.929688 28.984375 -9.953125 C 29.078125 -11.140625 28.828125 -12.070312 28.234375 -12.75 C 27.640625 -13.4375 26.832031 -13.945312 25.8125 -14.28125 C 24.789062 -14.625 23.660156 -14.863281 22.421875 -15 C 21.179688 -15.132812 19.945312 -15.21875 18.71875 -15.25 L 16.328125 -15.359375 C 14.660156 -15.421875 12.914062 -15.570312 11.09375 -15.8125 C 9.269531 -16.050781 7.578125 -16.492188 6.015625 -17.140625 C 4.453125 -17.785156 3.175781 -18.742188 2.1875 -20.015625 C 1.207031 -21.296875 0.71875 -23.007812 0.71875 -25.15625 C 0.71875 -27.019531 1.085938 -28.613281 1.828125 -29.9375 C 2.578125 -31.269531 3.582031 -32.359375 4.84375 -33.203125 C 6.101562 -34.054688 7.503906 -34.722656 9.046875 -35.203125 C 10.597656 -35.679688 12.179688 -36.007812 13.796875 -36.1875 C 15.410156 -36.375 16.953125 -36.46875 18.421875 -36.46875 C 20.253906 -36.46875 22.128906 -36.332031 24.046875 -36.0625 C 25.972656 -35.789062 27.75 -35.289062 29.375 -34.5625 C 31.007812 -33.832031 32.351562 -32.757812 33.40625 -31.34375 C 34.46875 -29.9375 35.066406 -28.109375 35.203125 -25.859375 L 28.15625 -25.15625 C 28.050781 -26.3125 27.648438 -27.257812 26.953125 -28 C 26.265625 -28.75 25.410156 -29.328125 24.390625 -29.734375 C 23.367188 -30.148438 22.3125 -30.429688 21.21875 -30.578125 C 20.132812 -30.734375 19.148438 -30.8125 18.265625 -30.8125 C 17.648438 -30.8125 16.78125 -30.75 15.65625 -30.625 C 14.539062 -30.507812 13.394531 -30.273438 12.21875 -29.921875 C 11.039062 -29.566406 10.046875 -29.019531 9.234375 -28.28125 C 8.421875 -27.550781 8.015625 -26.554688 8.015625 -25.296875 C 8.015625 -24.109375 8.410156 -23.222656 9.203125 -22.640625 C 10.003906 -22.066406 11.039062 -21.675781 12.3125 -21.46875 C 13.59375 -21.269531 14.960938 -21.132812 16.421875 -21.0625 C 18.867188 -21.03125 21.273438 -20.882812 23.640625 -20.625 C 26.003906 -20.375 28.140625 -19.898438 30.046875 -19.203125 C 31.953125 -18.503906 33.460938 -17.472656 34.578125 -16.109375 C 35.703125 -14.753906 36.265625 -12.957031 36.265625 -10.71875 C 36.265625 -8.632812 35.710938 -6.828125 34.609375 -5.296875 C 33.503906 -3.773438 32.054688 -2.535156 30.265625 -1.578125 C 28.484375 -0.628906 26.570312 0.03125 24.53125 0.40625 C 22.90625 0.71875 20.953125 0.875 18.671875 0.875 Z M 18.671875 0.875 "/></g></g></g></g></g></svg>